<?xml version="1.0" encoding="utf-8"?>
<!-- Generator: Adobe Illustrator 23.0.3, SVG Export Plug-In . SVG Version: 6.00 Build 0)  -->
<svg version="1.1" xmlns="http://www.w3.org/2000/svg" xmlns:xlink="http://www.w3.org/1999/xlink" x="0px" y="0px"
	 viewBox="0 0 850.39 850.39" style="enable-background:new 0 0 850.39 850.39;" xml:space="preserve">
<style type="text/css">
	.st0{display:none;fill:#D6ECDC;}
	.st1{fill:#F48787;}
	.st2{fill:none;stroke:#040321;stroke-width:1.5;stroke-linecap:round;stroke-linejoin:round;stroke-miterlimit:10;}
	.st3{fill:#F7ABA9;}
	.st4{fill:#FDE8E7;}
	.st5{fill:none;stroke:#040321;stroke-width:1.5;stroke-miterlimit:10;}
	.st6{fill:#040321;}
	.st7{fill:#FFFFFF;stroke:#040321;stroke-width:1.5;stroke-linecap:round;stroke-linejoin:round;stroke-miterlimit:10;}
	.st8{display:none;}
	.st9{display:inline;fill:#040321;}
	.st10{font-family:'Intro-Inline';}
	.st11{font-size:112.3052px;}
	.st12{font-size:67.3831px;}
	.st13{font-size:40.4299px;}
	.st14{fill:none;}
	.st15{font-size:36px;}
	.st16{fill-rule:evenodd;clip-rule:evenodd;fill:#F48787;stroke:#040321;stroke-width:1.5;stroke-miterlimit:10;}
</style>
<g id="Слой_2">
	<rect x="0" class="st0" width="850.39" height="850.39"/>
	<g id="leg">
		<path class="st1" d="M512.15,248.76c0,0,15.16,29.57,18.99,54.68c6.31,41.27,10.16,86,12.83,98.25
			c2.68,12.32-8.74,22.76-6.04,34.21c3.8,16.11,14.37,12.18,17.64,27.01c5.09,23.05,20.07,140.88,21.45,148.73
			c1.38,7.85-1.94,11.63-4.18,18.38c-1.74,5.25-3.39,15.52,5.1,14.7c11.38-1.1,28.57-3.66,37.52-1.7s31.49,1.91,42.8,1.7
			c9.61-0.18,8.34-2.4-9.06-5.48c-6.34-1.12-3.46-2.2,4-1.01c9.37,1.5,6.21-1.61-10.22-10.18c-21.29-11.1-28.35,1.5-39.36,1.5
			c-11.01,0-12.33-4.33-14.62-16.11c-2.3-11.77-16.72-145-17.6-152.46c-1.93-16.23,6.36-18.86,4.24-32.35
			c-2.37-15.16-14.91-18.98-16.9-30.58c-2.14-12.49-6.27-54.2-10.63-96.21c-1.41-13.56,12.12-58.54,12.12-58.54L512.15,248.76z"/>
		<path class="st2" d="M512.15,248.76c0,0,15.16,29.57,18.99,54.68c6.31,41.27,10.16,86,12.83,98.25
			c2.68,12.32-14.73,24.8-12.03,36.26c3.8,16.11,14.97,14.85,21.81,30.63c9.43,21.78,21.9,135.21,23.27,143.06
			c1.38,7.85-1.94,11.63-4.18,18.38c-1.74,5.25-3.39,15.52,5.1,14.7c11.38-1.1,28.57-3.66,37.52-1.7s31.49,1.91,42.8,1.7
			c9.61-0.18,8.34-2.4-9.06-5.48c-6.34-1.12-3.46-2.2,4-1.01c9.37,1.5-3.5,0.16-16.28-12.86c-17.85-18.19-21.4,0.7-33.3,4.19
			c-10.52,3.09-12.33-4.33-14.62-16.11c-2.3-11.77-16.72-145-17.6-152.46c-1.93-16.23,6.36-18.86,4.24-32.35
			c-2.37-15.16-10.92-21.6-12.91-33.2c-2.14-12.49-10.26-51.59-14.62-93.59c-1.41-13.56,12.12-58.54,12.12-58.54L512.15,248.76z"/>
	</g>
	<g id="body_1_">
		<path class="st3" d="M517.22,248.7c0,0-1.65,7.52-0.77,13.53c2.76,18.74,4.92,14.99,7.33,3.03c3.16-15.69,7.48-18.69,9.05,2.96
			c0.76,10.41,4.18,6.85,6.55,0.89c8.69-21.8,8.88-20.03,9.28,2.48c0.12,6.72-0.21,9.6,8.14-1.96c3.77-5.22,6.93-11.81,11.22-24.6
			c2.18-6.51-17.49,0.37-17.49,0.37L517.22,248.7z"/>
		<path class="st2" d="M517.22,248.7c0,0-1.65,7.52-0.77,13.53c2.76,18.74,4.92,14.99,7.33,3.03c3.16-15.69,7.48-18.69,9.05,2.96
			c0.76,10.41,4.18,6.85,6.55,0.89c8.69-21.8,8.88-20.03,9.28,2.48c0.12,6.72-0.61,9.74,10.1-0.74c5.44-5.32,9.5-12.77,16.23-24.43
			c3.46-5.99-24.46-1.01-24.46-1.01L517.22,248.7z"/>
	</g>
	<g id="leg_1_">
		<path class="st1" d="M470.49,248.76c0,0,8.56,36.16,8.38,62.33c-0.11,16.26-6.72,62.59-9.9,89.29
			c-1.51,12.67-18.27,23.7-18.83,35.37c-0.66,13.86,9.83,16.81,9.35,34.54c-1.11,41.57-4.91,113.13-8.23,141.92
			c-0.84,7.28-0.76,20.01-10.91,22.58c-13.3,3.37-24.51,16.13-13.52,17.25c11.52,1.18,49.16,0.43,57.2-0.36
			c6.7-0.66-3.9-11.71-17.25-16.68c-4.87-1.81-4.03-11.38-4.12-21.02c-0.09-9.63,6.38-90.85,10.61-141.27
			c1.4-16.7,15.46-19.02,18.04-34.98c2.19-13.56-7.6-23.7-6.81-36.08c1.5-23.56,5.09-48.61,12.84-90.23
			c4.66-25.01,31.97-62.66,31.97-62.66H470.49z"/>
		<path class="st2" d="M469.97,248.76c0,0,8.56,36.16,8.38,62.33c-0.11,16.26-6.72,62.59-9.9,89.29
			c-1.51,12.67-27.19,27.95-25.31,39.49c1.77,10.83,9.71,17.23,11.8,35.07c4.83,41.33-0.88,108.48-4.19,137.27
			c-0.84,7.28-0.74,14.14-10.89,16.71c-13.3,3.37-24.53,22-13.54,23.12c11.52,1.18,49.16,0.43,57.2-0.36
			c6.7-0.66-3.9-11.71-17.25-16.68c-4.87-1.81-4.03-11.38-4.12-21.02c-0.09-9.63,6.38-90.85,10.61-141.27
			c1.4-16.7,15.46-19.02,18.04-34.98c2.19-13.56-7.11-21.51-6.32-33.9c1.5-23.56,4.61-50.79,12.36-92.42
			c4.66-25.01,31.97-62.66,31.97-62.66H469.97z"/>
	</g>
	<g id="body">
		<path class="st3" d="M782.2,222.51c-9.84-61.01-51.2-47.03-66.9-30.57c-15.66,16.42-42.84,17.28-44.94,0.58
			c-11.15-88.72-20.06-98.41-35.7-102.25c-13.78-3.38-117.8-13.89-190.29,27.46c-58.89,33.6-79.12,66.91-84.68,78.22
			c-1.75,3.56-2.9,3.87-4.9,3.67c-4.8-0.5-14.51-1.32-24.9-0.98c-9.34,0.3-23.54,1.99-25.93,18.28c-2.36,16.15-0.26,20.97,6.4,12.66
			c6.62-8.25,20.58-15.07,26.25-15.98c6.61-1.07,7.92-0.65,2.81,1.42c-6.89,2.78-11.58,7.57-17.44,12.4
			c-12.21,10.07-12.56,17.49-10.69,28.23c2.87,16.46,2.69,21.69,17.32-4.34c6.73-11.96,14.11-17.1,20.5-22.44
			c3.27-2.73,4.66-3.43-0.09,4.01c-5.47,8.55-8.77,18.72-12.99,28.88c-11.41,27.41-1.99,38.49,5.55,50.51
			c9.42,15.03,14.45,17.97,14.17,4.22c-0.27-13.51,0.44-30.04,3.61-52.36c3.8-26.83,7.8-33.49,12.4-48.04
			c0.81-2.56,3.72-3.56,4.6-3.3c18.92,5.44,34.92,9,90.63,21.79c2.25,0.52,3.32,1.24,3.57,3.35c0.37,3.2,0.91,8.23,1.28,12.82
			c0.43,5.3,0.09,13.86,0.43,18.41c0.43,5.82,2.13,4.58,3.64,0.61c0.99-2.58,1.37-5.36,3.97-10.09c2.16-3.93,4.89-7.03,6.63-9.81
			c1.51-2.41,2.12-1.55,2.04,2.1c-0.07,3.54,0.07,5.37-0.58,8.8c-1.06,5.62-1.73,8.29-2.1,11.08c-0.87,6.67,2.37,4.44,4.98,0.95
			c2.28-3.06,6.04-7.5,9.34-11.33c4.22-4.89,8.32-8.51,11.63-11.32c2.48-2.11,3.52-2.23,3.21,1.48c-0.21,2.55-0.8,3.94-1.51,7.2
			c-1.86,8.63-2.88,10.82-4.83,14.61c-0.8,1.56-2.82,5.83,2.78,2.56c2.25-1.31,12.82-11.65,19.98-17.18
			c5.83-4.5,11.12-8.29,13.97-10.22c0.45-0.31,1.75-1.05,2.3-0.98c20.25,2.6,58.66,12.82,80.15,13.14c2.27,0.03,0.59,0.92-0.38,1.63
			c-3.71,2.72-4.21,3.45,3.63,3.34c5.18-0.07,13.2-2.17,13.2-2.17c3.98-1.34,4.32-0.39,1.84,1.61c0,0-4.19,3.87-6.52,6.2
			c-2.96,2.95-1.41,3.38,1.73,2.97c3.58-0.47,14.91-4.85,20.69-7.35c5.44-2.35,5.26-1.74,3.03,1.4c0,0-7.81,8.73-11.37,13.16
			c-3.51,4.36-0.32,4.92,3.13,3.54c5.48-2.2,20.51-8.07,34.49-14.42c20.1-9.12,31.03-13.55,37.19-24.59
			c6.26-11.21,18.66-10.06,19.58,5.22c6.99,116.48-3.22,156.52-16.35,229.49c-3.82,21.2-9.92,23.92-15.62,9.59
			c-4.62-11.62-12.64-8.45-44.88-10.72c-32.8-2.31-63.03-30.66-92.21-27.86c-27.04,2.59-40.7,29.03-41.15,29.95
			c-0.01,0.02,1.2,1.57,1.18,1.57c-1.59,0.13,12.42,38.15,12.42,38.15s106.82-4.18,137.48-5.1c8.27-0.25,11.7,2.01,17.78,11.89
			c6.09,9.91,25.91,16.09,39.07-6.39c21.32-36.44,29.54-93.35,35.58-154.8C788.29,297.67,787.33,254.32,782.2,222.51z"/>
		<path class="st2" d="M744.8,246.45c5.33,14.68-1.71,193.95-13.82,237.61c-4.01,14.46-6.68,17.73-9.03,9.71
			c-4.92-16.85-8.03-18.7-44.84-15.73c-33.36,2.69-68.83-29.04-98.01-26.24c-27.04,2.59-40.7,29.03-41.15,29.95
			c-0.01,0.02,1.2,1.57,1.18,1.57c-1.59,0.13,12.42,38.15,12.42,38.15c-6.12,0.1,67.11-3.65,114.46-4.31
			c11.53-0.16,33.62-4.52,38.47,7.12c4.65,11.17,24.5,21.86,39.72,0.11c27.89-39.86,36.46-136.18,38.62-178.36
			c2.73-53.14,6.49-105.32-4.7-140.44c-12.7-39.88-41.3-47.28-62.15-22.92c-21.08,24.63-44.22,26.62-45.61,9.85
			c-7.55-91.03-19.74-106.49-35.63-109.26c-31.65-5.52-117.88-6.88-190.37,34.48c-58.89,33.6-70.58,56.49-79.35,68.9
			c-8.56,12.12-11.78,12.36-18.18,12.32c-4.83-0.03-6.57-0.66-16.95-0.32c-9.34,0.3-28.47,8.21-30.85,24.5
			c-2.36,16.15,3.72,21.35,9.09,12.24c8.99-15.26,22.82-20.86,28.49-21.77c6.61-1.07,7.92-0.65,2.81,1.42
			c-6.89,2.78-11.58,7.57-17.44,12.4c-12.21,10.07-14.83,24.12-13.23,34.9c3.41,22.96,7.6,21.72,19.45-5.55
			c5.24-12.08,14.53-22.55,20.92-27.89c3.27-2.73,4.66-3.43-0.09,4.01c-5.47,8.55-8.77,18.72-12.99,28.88
			c-11.41,27.41-5.88,44.06,1.66,56.08c9.42,15.03,23.02,24.68,22.03,4.27c-0.65-13.5-3.53-35.52-0.24-58.84
			c3.66-25.95,7.68-32.63,12.28-47.18c0.81-2.56,3.72-3.56,4.6-3.3c18.92,5.44,28.08,7.41,83.8,20.19c2.25,0.52,4.07,1.37,4.74,3.39
			c1.75,5.3,3.18,8.65,4.35,13.78c1.18,5.19,2.69,14.46,3.03,19.01c0.43,5.82,2.13,4.58,3.64,0.61c0.99-2.58,1.37-5.36,3.97-10.09
			c2.16-3.93,4.89-7.03,6.63-9.81c1.51-2.41,2.12-1.55,2.04,2.1c-0.07,3.54,0.07,5.37-0.58,8.8c-1.06,5.62-1.73,8.29-2.1,11.08
			c-0.87,6.67,2.37,4.44,4.98,0.95c2.28-3.06,6.04-7.5,9.34-11.33c4.22-4.89,8.32-8.51,11.63-11.32c2.48-2.11,3.52-2.23,3.21,1.48
			c-0.21,2.55-0.8,3.94-1.51,7.2c-1.86,8.63-2.88,10.82-4.83,14.61c-0.8,1.56-2.82,5.83,2.78,2.56
			c2.25-1.31,12.82-11.65,19.98-17.18c5.83-4.5,11.12-8.29,13.97-10.22c0.45-0.31,1.75-1.05,2.3-0.98
			c20.25,2.6,58.66,12.82,80.15,13.14c2.27,0.03,0.59,0.92-0.38,1.63c-3.71,2.72-4.21,3.45,3.63,3.34c5.18-0.07,13.2-2.17,13.2-2.17
			c3.98-1.34,4.32-0.39,1.84,1.61c0,0-4.19,3.87-6.52,6.2c-2.96,2.95-1.41,3.38,1.73,2.97c3.58-0.47,14.91-4.85,20.69-7.35
			c5.44-2.35,5.26-1.74,3.03,1.4c0,0-7.81,8.73-11.37,13.16c-3.51,4.36,1.23,5.85,4.76,4.64c9.02-3.09,22.38-6.38,35.65-13.99
			c10.7-6.14,24.32-13.4,37.25-29.52C738.12,234.36,741.73,238,744.8,246.45z"/>
	</g>
	<g id="wing">
		<path class="st4" d="M498.85,122.92c30.58-7.22,64.72-8.68,64.72-8.68L584.29,166l-27.69,28.68l-73.49,0.08l-61.54-21.41
			l9.37-21.05c0,0,8.16-7.48,15.72-11.17C458.88,135.15,469.59,129.82,498.85,122.92z"/>
		<path class="st2" d="M498.85,122.92c30.58-7.22,64.72-8.68,64.72-8.68L584.29,166l-27.69,28.68l-73.49,0.08l-61.54-21.41
			l9.37-21.05c0,0,8.16-7.48,15.72-11.17C458.88,135.15,469.59,129.82,498.85,122.92z"/>
		<path class="st1" d="M606,117.59c-16.68-3.18-33.16-3.55-39.93-3.55c-5.32-0.01-3.58,1.36-1.97,5.68
			c2.93,7.88,7.62,25.28,5.27,40.31c-2.19,14.02-7.12,20.25-9.83,24.22c-3.83,5.6-5.93,3.03-7.93,1.38
			c-5.46-4.49-8.74-6.39-11.85-20.85c-1.9-8.84-1.18-19.62-0.98-25.6c0.36-11.08-0.86-10.11-2.74-1.08
			c-1.36,6.54-4.44,19.1-7.98,28.53c-5.09,13.53-14.62,18.4-19.32,21.68c-3.65,2.55-6.37,2.22-8.27-2.97
			c-1.67-4.56-3.42-9.35-2.5-17.4c0.86-7.51,5.95-18.41,8.96-24.57c3.98-8.15,2.86-8.57-2.64-0.87
			c-3.83,5.36-10.67,15.07-17.57,21.79c-9.2,8.96-16.32,10.84-21,12.7c-5.51,2.19-6.5-0.32-6.55-2.16
			c-0.09-3.87,0.62-7.53,4.34-14.33c2.18-3.98,6.75-9.83,8.97-12.28c5.28-5.83,3.6-6.5-1.71-1.7c-4.75,4.29-13.79,12.65-19.21,16.26
			c-11.45,7.62-18.22,8.06-22.39,8.28c-2.64,0.14-3.91-1.1-2.98-3.48c0.93-2.38,2-5.26,5.45-9.87c5-6.68,10.51-10.36,14.6-13.53
			c5.2-4.03,3.61-4.49-0.77-2.59c-6.05,2.63-19.39,10-28.62,17.49c-10.33,8.38-19.17,18.78-21.96,22.2
			c-1.72,2.11-1.41,2.19,1.33,3.33c5.88,2.44,24.26,8.58,51.23,16.43c33.73,9.81,89.77,19.24,123.82,16.73
			c31.35-2.31,46.57-26.87,56.8-79.86C630.41,125.85,624.13,121.05,606,117.59z"/>
		<path class="st2" d="M606,117.59c-16.68-3.18-33.16-3.55-39.93-3.55c-5.32-0.01-3.58,1.36-1.97,5.68
			c2.93,7.88,7.62,25.28,5.27,40.31c-2.19,14.02-7.12,20.25-9.83,24.22c-3.83,5.6-5.93,3.03-7.93,1.38
			c-5.46-4.49-8.74-6.39-11.85-20.85c-1.9-8.84-1.18-19.62-0.98-25.6c0.36-11.08-0.86-10.11-2.74-1.08
			c-1.36,6.54-4.44,19.1-7.98,28.53c-5.09,13.53-14.62,18.4-19.32,21.68c-3.65,2.55-6.37,2.22-8.27-2.97
			c-1.67-4.56-3.42-9.35-2.5-17.4c0.86-7.51,5.95-18.41,8.96-24.57c3.98-8.15,2.86-8.57-2.64-0.87
			c-3.83,5.36-10.67,15.07-17.57,21.79c-9.2,8.96-16.32,10.84-21,12.7c-5.51,2.19-6.5-0.32-6.55-2.16
			c-0.09-3.87,0.62-7.53,4.34-14.33c2.18-3.98,6.75-9.83,8.97-12.28c5.28-5.83,3.6-6.5-1.71-1.7c-4.75,4.29-13.79,12.65-19.21,16.26
			c-11.45,7.62-18.22,8.06-22.39,8.28c-2.64,0.14-3.91-1.1-2.98-3.48c0.93-2.38,2-5.26,5.45-9.87c5-6.68,10.51-10.36,14.6-13.53
			c5.2-4.03,3.61-4.49-0.77-2.59c-6.05,2.63-19.39,10-28.62,17.49c-10.33,8.38-19.17,18.78-21.96,22.2
			c-1.72,2.11-3.19,4.09-0.48,5.29c10.59,4.69,24.11,11.58,51.08,19.43c33.73,9.81,97.71,21.52,131.76,19.01
			c31.35-2.31,48.04-32.11,53.6-85.74C632.41,124.27,624.13,121.05,606,117.59z"/>
	</g>
	<g id="glasses_1_">
		<path class="st5" d="M515.32,481.18c0,0-2.79-2.25-3.57-0.01"/>
		<path class="st5" d="M504.73,496.63c4.51-0.36,7.48-8.38,6.63-17.91c-0.85-9.53-5.19-16.96-9.7-16.6
			c-0.99,0.08-1.63,0.15-2.84,0.54"/>
		
			<ellipse transform="matrix(0.9959 -0.091 0.091 0.9959 -41.5707 47.6297)" class="st5" cx="501.49" cy="479.66" rx="8.19" ry="17.32"/>
	</g>
	<g id="beak">
		<path class="st4" d="M441.65,507.31c2.69-9.37,5.81-13.23,17.84-15.67c28.97-5.88,78.11-9.76,78.11-9.76
			c0.03-0.02,4.06,1.39,9.49,4.49l0-0.01c0,0,4.7-10.69,17.55-19.23c6.71-4.46,19.45-6.04,26.51-2.19
			c7.21,3.93,13.03,13.62,10.91,20.38c-2.51,8.01-9.58,13.2-17.69,16.55c-10.11,4.18-14.96,4.23-17.37,4.68c0,0,0,0,0,0
			c-1.35,2.3-4.21,6.86-7.28,9.57c-4.22,3.74-7.8,5.46-7.8,5.46s-45.98,1.74-68.99,2.58c-6.88,0.25-10.49,3.07-13.18,8.72
			c-2.69,5.65-5.72,11.75-9.14,17.88c-3.62,6.5-8.74,8.56-13.67,1.8C444.28,548.89,435.08,530.26,441.65,507.31z"/>
		<path class="st2" d="M441.65,507.31c2.69-9.37,5.81-13.23,17.84-15.67c28.97-5.88,78.11-9.76,78.11-9.76
			c0.03-0.02,4.06,1.39,9.49,4.49l0-0.01c0,0,4.7-10.69,17.55-19.23c6.71-4.46,19.45-6.04,26.51-2.19
			c7.21,3.93,13.03,13.62,10.91,20.38c-2.51,8.01-9.58,13.2-17.69,16.55c-10.11,4.18-14.96,4.23-17.37,4.68c0,0,0,0,0,0
			c-1.35,2.3-4.21,6.86-7.28,9.57c-4.22,3.74-7.8,5.46-7.8,5.46s-45.98,1.74-68.99,2.58c-6.88,0.25-10.49,3.07-13.18,8.72
			c-2.69,5.65-5.72,11.75-9.14,17.88c-3.62,6.5-8.74,8.56-13.67,1.8C444.28,548.89,435.08,530.26,441.65,507.31z"/>
		<path class="st6" d="M567.53,505.13c-21.79,1.49-81.15,3.74-87.12,4.3c-5.98,0.55-7.8,2.8-7.8,2.8l0.35,1.78
			c0,0,2.82-2.09,7.18-2.36c6.23-0.39,65.15-3.11,86.89-5.08c7.43-0.67,13.43-3.16,13.43-3.16S573.6,504.72,567.53,505.13z"/>
		<path class="st6" d="M474.32,515.03c-1.22,17.91-7.89,28.74-13.82,36.93c-8.78,12.13-18.95,1.83-21.02-23.98
			c-1.71-21.33,4.48-32.6,16.13-35.5c5.32-1.32,11.27-2.45,12.47-2.29C472.21,490.71,475.08,503.88,474.32,515.03z"/>
	</g>
	<g id="glasses">
		<path class="st5" d="M526.68,497.96c0.68-0.07,0.74-0.05,1.4-0.11c5.26-0.42,8.75-9.39,7.81-20.04
			c-0.95-10.65-5.98-18.93-11.23-18.51c-0.92,0.07-1.12-0.01-2.25,0.21"/>
		
			<ellipse transform="matrix(0.9958 -0.0913 0.0913 0.9958 -41.5124 49.8956)" class="st5" cx="524.65" cy="478.71" rx="9.55" ry="19.35"/>
	</g>
	<g id="eye">
		
			<ellipse transform="matrix(0.688 -0.7257 0.7257 0.688 -172.7025 569.2925)" class="st7" cx="575.76" cy="485.51" rx="10.01" ry="6.95"/>
		
			<ellipse transform="matrix(0.9089 -0.4171 0.4171 0.9089 -149.772 285.5728)" class="st6" cx="578.56" cy="485.49" rx="5.44" ry="4.74"/>
	</g>
	<g id="hat">
		<path class="st6" d="M636.24,454.45c-1.11,6.26-21.09,8.87-43.65,5.26c-22.56-3.6-39.16-12.05-38.06-18.31s18.75,2.6,41.31,6.2
			C618.41,451.21,637.35,448.2,636.24,454.45z"/>
		<path class="st6" d="M618.67,448.46c-1.93,10.9-13,9.1-25.55,7.1s-21.83-3.46-19.91-14.36c1.24-7.03,6.13-15.28,13.22-19.36
			c4.09-2.35,8.77,1.53,13.22,2.24c3.9,0.62,8.94-2.06,11.85,0.84C617.93,431.35,619.99,440.95,618.67,448.46z"/>
	</g>
	<g id="bowtie">
		<path class="st6" d="M698.96,229.12c-0.11-0.11-0.21-0.22-0.31-0.35c-16.11-21.48-14.36-24.39-14.11-25.78
			c0.51-2.89,4.43-3.14,6.56-2.68c1.58,0.35,2.84,0.79,2.84,0.79s-2.09,1.82-4.25,2.98c0.83,2.92,7.84,13.53,13.77,21.43
			c0.95,1.26,0.64,3.02-0.69,3.92C701.57,230.24,699.96,230.08,698.96,229.12z"/>
		<path class="st6" d="M715.41,246.99c0,0,8.37-10.46,6.5-23.42c-1.39-9.65-6.44-9.25-12.13-3.22c-4.48,4.76-12.84,9.93-21.81,11.17
			c-8.36,1.15-5.85,5.91,0.17,11.61c5.06,4.8,15.87,7,19.44,7.54c3.57,0.54,0.83,1.89,0.83,1.89s-4.38,4.12-7.14,9.3
			c-2.04,3.83,3.97,5.08,10.09,1.62c4.67-2.64,12.84-6.65,17.96-10.07c7.86-5.26,8.03-7.88,3.36-9.06
			c-4.02-1.02-7.83-0.13-14.02,2.07C715.26,247.62,715.41,246.99,715.41,246.99z"/>
		<path class="st6" d="M702.8,253.55L702.8,253.55c-1.49-2.34-0.7-5.4,1.76-6.82l10.91-6.28c2.46-1.42,5.69-0.66,7.17,1.67v0
			c1.49,2.34,0.7,5.4-1.76,6.82l-10.91,6.28C707.52,256.64,704.29,255.89,702.8,253.55z"/>
	</g>
	<text transform="matrix(1.0519 0 0 1 101.6021 791.0366)" class="st8"><tspan x="0" y="0" class="st9 st10 st11">404</tspan><tspan x="205.74" y="0" class="st9 st10 st12"> </tspan></text>
	<text transform="matrix(1.0519 0 0 1 365.4869 741.6547)" class="st8"><tspan x="0" y="0" class="st9 st10 st13">Ooops!</tspan><tspan x="0" y="48.52" class="st9 st10 st13">page not found</tspan></text>
	<rect x="135.58" y="734.73" class="st14" width="642.47" height="34.92"/>
	<text transform="matrix(1 0 0 1 135.5819 759.9352)" class="st10 st15">Lorem ipsum dolor sit amet</text>
</g>
<g id="globe">
	<g>
		<line class="st2" x1="91.63" y1="359.7" x2="283.09" y2="541.71"/>
	</g>
	<ellipse class="st3" cx="187.21" cy="448.46" rx="97.85" ry="93.02"/>
	<g>
		<path class="st6" d="M189.8,354.27c51.46,0,100.1,35.66,100.1,93.6c0,51.37-48.65,93.6-102.69,93.6s-97.85-41.65-97.85-93.02
			S135.76,354.27,189.8,354.27 M189.8,352.77c-55.26,0-101.94,43.82-101.94,95.69c0,52.12,44.57,94.52,99.35,94.52
			c26.38,0,52.84-10.18,72.61-27.92c20.36-18.28,31.58-42.14,31.58-67.18c0-14.2-2.88-27.56-8.55-39.71
			c-5.32-11.4-12.97-21.48-22.72-29.96C241.52,362.05,215.89,352.77,189.8,352.77L189.8,352.77z"/>
	</g>
	<g>
		<path class="st6" d="M182.73,337.91c65.53,0,118.65,50.5,118.65,112.8s-53.12,112.8-118.65,112.8S64.08,513,64.08,450.71
			S117.2,337.91,182.73,337.91 M182.73,336.41c-32.08,0-62.24,11.88-84.93,33.45c-22.71,21.59-35.22,50.3-35.22,80.85
			s12.51,59.26,35.22,80.85c22.69,21.57,52.85,33.45,84.93,33.45s62.24-11.88,84.93-33.45c22.71-21.59,35.22-50.3,35.22-80.85
			s-12.51-59.26-35.22-80.85C244.97,348.29,214.81,336.41,182.73,336.41L182.73,336.41z"/>
	</g>
	<path class="st4" d="M183.5,357.98c0,0,6.38,2.81,6.29,8.99c-0.09,6.18-3.34,8.7-8.36,10.39c-5.02,1.68-9.75-0.28-7.68-4.21
		c2.07-3.93,2.36-6.7-3.84-5.17c-6.2,1.52-10.34,2.93-15.06,3.21c-4.73,0.28-6.79,2.05-1.77,6.78c5.02,4.73,6.2,7.26,0,13.15
		c-6.2,5.9-19.5,16.29-23.63,19.38c-4.14,3.09-9.45,1.4-13.29,2.25c-3.84,0.84-5.32,2.53-4.14,7.02c1.18,4.49,4.43,8.7,3.84,12.64
		c-0.59,3.93-2.18,4.38-6.48,0.53c-4.27-3.83-5.93-5.02-8.88-11.48c-2.95-6.46-3.22-9.69-3.22-9.69s8.07-22.8,35.29-40.67
		c22.34-14.67,47.35-15.56,47.35-15.56L183.5,357.98z"/>
	<path class="st4" d="M229.22,376.41c-4.93-3.48-8.22-11.05-14.11-8.84c-5.89,2.21-8.84,3.24-5.58,5.31
		c3.26,2.06,4.96,4.57,2.95,7.37c-2.02,2.8-5.64,4.72-4.29,9.58c1.35,4.86,5.84,12.23,8.17,4.86c2.33-7.37,2.17-10.46,7.29-9.73
		c5.12,0.74,8.53,5.16,14.11,6.34c5.58,1.18,10.08-1.62,6.05-5.16C239.76,382.6,234.02,379.8,229.22,376.41z"/>
	<path class="st4" d="M256.35,402.5c-4.17,4.14-6.95,6.77-13.16,3.82c-6.2-2.95-13.51-8.28-17.23-1.04
		c-3.72,7.24-3.49,7.31-5.66,9.82c-2.17,2.51-4.01,9.42-1.63,15.11c5.3,12.67,9.97,11.5,18.16,8.84c8.19-2.65,17.03-0.44,17.19,5.9
		c0.16,6.34-0.78,33.75-8.22,45.39c-7.44,11.64-7.91,13.41,3.88,5.9c11.78-7.52,19.53-17.1,22.02-23.58
		c2.48-6.48,3.57-34.05,1.09-45.69c-2.48-11.64-5.97-19.04-9.84-22.88C259.06,400.25,257.79,401.06,256.35,402.5z"/>
	<path class="st4" d="M182.88,458.13c-4.29-0.87-14.75-3.61-20.02-8.62c-5.27-5.01-5.43-3.1-10.54-4.13s-10.85-3.68-15.35-6.93
		c-4.5-3.24-5.12-5.31-7.29,0c-2.17,5.31-2.64,9.87-5.27,13.56c-2.64,3.68-3.26,6.34,0,9.43c3.26,3.1,15.04,9.14,16.43,15.03
		c1.4,5.9,2.17,16.36,0.93,21.96c-1.24,5.6-0.42,10.42,4.34,14.74c6.82,6.19,8.35,7.52,5.74,0c-2.66-7.66,6.53-18.35,17.36-26.38
		c9.15-6.78,16.59,0.44,13.02-7.96c-2.62-6.18-1.69-9.71,1.55-14C187.21,460.3,186.67,458.9,182.88,458.13z"/>
	<path class="st4" d="M173.25,534.68c4.53,0.39,7.57,1.85,10.6-4.32c3.03-6.17,2.81-16.44,13.19-9.87
		c10.38,6.58,16.22,12.74,24,10.69c7.78-2.06,8.94-3.55,6.92-0.41s-4.87,4.26-4.87,4.26s-10.23,4.14-24.78,5.86
		c-16.68,1.97-32.38-1.61-32.38-1.61s1.05,0.13-1.11-1.72C162.65,535.71,169.35,534.35,173.25,534.68z"/>
	<g>
		<path class="st6" d="M180.11,355.51l3.58,2.46c0,0,6.38,2.81,6.29,8.99s-3.34,8.7-8.36,10.39c-1.23,0.41-2.44,0.61-3.54,0.61
			c-3.39,0-5.71-1.85-4.14-4.82c1.67-3.18,2.19-5.6-0.97-5.6c-0.74,0-1.69,0.13-2.87,0.42c-6.2,1.52-10.34,2.93-15.06,3.21
			c-4.73,0.28-6.79,2.05-1.77,6.78c5.02,4.73,6.2,7.26,0,13.15c-6.2,5.9-19.5,16.29-23.63,19.38c-2.43,1.81-5.26,1.98-7.97,1.98
			c-0.61,0-1.22-0.01-1.81-0.01c-1.25,0-2.43,0.04-3.51,0.27c-3.84,0.84-5.32,2.53-4.14,7.02c1.18,4.49,4.43,8.7,3.84,12.64
			c-0.31,2.09-0.91,3.2-2.05,3.2c-1,0-2.42-0.86-4.43-2.67c-4.27-3.83-5.93-5.02-8.88-11.48c-2.95-6.46-3.22-9.69-3.22-9.69
			s8.07-22.8,35.29-40.67C155.1,356.41,180.11,355.51,180.11,355.51 M180.11,354.01c-0.02,0-0.04,0-0.05,0
			c-1.04,0.04-25.68,1.08-48.12,15.8c-27.33,17.94-35.55,40.47-35.88,41.42c-0.07,0.2-0.1,0.41-0.08,0.62
			c0.01,0.14,0.33,3.57,3.35,10.19c2.88,6.31,4.73,7.95,8.41,11.23l0.83,0.74c2.38,2.14,4.01,3.05,5.44,3.05
			c2.86,0,3.36-3.37,3.53-4.47c0.44-2.9-0.85-5.79-2.08-8.58c-0.68-1.53-1.38-3.11-1.79-4.66c-0.46-1.74-0.47-2.93-0.03-3.65
			c0.41-0.68,1.38-1.16,3.03-1.52c0.96-0.21,2.1-0.24,3.19-0.24c0.29,0,0.58,0,0.88,0c0.31,0,0.62,0,0.93,0
			c2.81,0,6.05-0.18,8.87-2.28c4.48-3.35,17.69-13.71,23.77-19.49c3.29-3.13,4.69-5.46,4.69-7.81c-0.01-2.6-1.73-4.73-4.69-7.53
			c-2.6-2.45-2.43-3.34-2.43-3.35c0-0.01,0.42-0.67,3.26-0.84c3.7-0.22,6.95-1.07,11.06-2.15c1.35-0.35,2.74-0.72,4.27-1.09
			c1.03-0.25,1.88-0.38,2.52-0.38c0.49,0,0.71,0.08,0.79,0.11c0.03,0.17,0.08,0.95-1.15,3.29c-0.85,1.62-0.89,3.23-0.11,4.53
			c0.96,1.58,2.99,2.49,5.58,2.49c1.29,0,2.68-0.24,4.01-0.68c4.58-1.54,9.27-4.14,9.38-11.79c0.1-6.62-6-9.82-7.05-10.32
			l-3.48-2.39C180.71,354.11,180.41,354.01,180.11,354.01L180.11,354.01z"/>
	</g>
	<g>
		<path class="st6" d="M217.37,367.17c4.65,0,7.71,6.19,12.03,9.24c4.81,3.39,10.54,6.19,14.57,9.73c3.39,2.98,0.75,5.43-3.51,5.43
			c-0.8,0-1.66-0.09-2.54-0.27c-5.58-1.18-8.99-5.6-14.11-6.34c-0.49-0.07-0.93-0.11-1.33-0.11c-3.78,0-3.85,3.17-5.96,9.83
			c-0.71,2.24-1.61,3.12-2.57,3.12c-2.19,0-4.66-4.6-5.6-7.98c-1.35-4.86,2.28-6.78,4.29-9.58c2.02-2.8,0.31-5.31-2.95-7.37
			c-3.26-2.06-0.31-3.1,5.58-5.31C216.03,367.29,216.72,367.17,217.37,367.17 M217.37,365.67c-0.86,0-1.73,0.17-2.6,0.49l-0.38,0.14
			c-4.86,1.82-7.3,2.74-7.51,4.78c-0.17,1.66,1.49,2.71,2.03,3.06c1.82,1.15,2.88,2.31,3.08,3.34c0.12,0.6-0.06,1.21-0.55,1.89
			c-0.43,0.6-0.96,1.17-1.52,1.77c-1.89,2.04-4.25,4.58-3,9.09c0.7,2.53,3.33,9.08,7.04,9.08c1.78,0,3.13-1.4,4-4.17
			c0.39-1.23,0.71-2.34,0.99-3.32c1.33-4.64,1.72-5.46,3.54-5.46c0.32,0,0.7,0.03,1.12,0.09c2.29,0.33,4.3,1.56,6.42,2.86
			c2.26,1.39,4.6,2.82,7.59,3.46c0.96,0.2,1.92,0.31,2.85,0.31c3.18,0,5.61-1.2,6.34-3.12c0.35-0.93,0.58-2.81-1.84-4.94
			c-2.54-2.23-5.73-4.18-8.82-6.06c-1.98-1.21-4.02-2.45-5.87-3.76c-1.44-1.01-2.79-2.48-4.1-3.91
			C223.62,368.52,221,365.67,217.37,365.67L217.37,365.67z"/>
	</g>
	<g>
		<path class="st6" d="M258.7,401.3c1.01,0,2.34,0.72,4.43,2.78c3.88,3.83,7.36,11.23,9.84,22.88s1.4,39.2-1.09,45.69
			c-2.48,6.48-10.23,16.06-22.02,23.58c-4.71,3-7.46,4.53-8.6,4.53c-1.7,0,0.25-3.43,4.72-10.42c7.44-11.64,8.37-39.06,8.22-45.39
			c-0.11-4.57-4.74-7-10.39-7c-2.18,0-4.51,0.36-6.8,1.1c-2.94,0.95-5.43,1.71-7.65,1.71c-3.98,0-7.11-2.43-10.51-10.56
			c-2.38-5.7-0.54-12.61,1.63-15.11s1.94-2.57,5.66-9.82c1.37-2.67,3.23-3.63,5.34-3.63c3.62,0,7.97,2.81,11.89,4.67
			c1.84,0.87,3.37,1.26,4.74,1.26c3.24,0,5.48-2.17,8.42-5.08C257.2,401.83,257.83,401.3,258.7,401.3 M258.7,399.8
			c-1.46,0-2.43,0.84-3.22,1.63c-2.9,2.88-4.81,4.64-7.36,4.64c-1.18,0-2.52-0.36-4.09-1.11c-0.87-0.42-1.76-0.88-2.7-1.36
			c-3.28-1.7-6.67-3.46-9.83-3.46c-2.92,0-5.16,1.5-6.68,4.45c-0.84,1.64-1.49,2.92-2,3.94c-1.72,3.43-1.9,3.79-3.46,5.58
			c-2.44,2.82-4.51,10.37-1.88,16.67c3.41,8.15,6.85,11.48,11.89,11.48c2.4,0,4.99-0.77,8.11-1.79c2.08-0.67,4.27-1.03,6.33-1.03
			c4.04,0,8.79,1.45,8.89,5.53c0.15,6.13-0.8,33.31-7.98,44.55c-5.25,8.21-6.14,10.18-5.3,11.7c0.36,0.65,1.03,1.03,1.85,1.03
			c1.26,0,3.13-0.76,9.4-4.76c13-8.29,20.3-18.28,22.61-24.31c2.57-6.73,3.66-34.74,1.15-46.54c-2.42-11.34-5.87-19.29-10.25-23.63
			C261.9,400.77,260.26,399.8,258.7,399.8L258.7,399.8z"/>
	</g>
	<g>
		<path class="st6" d="M132.31,435.21c1.04,0,2.34,1.44,4.85,3.25c4.5,3.24,10.23,5.9,15.35,6.93s5.27-0.88,10.54,4.13
			c5.27,5.01,15.73,7.75,20.02,8.62c3.79,0.77,4.32,2.17,0.91,6.71c-3.24,4.29-4.17,7.82-1.55,14c3.57,8.4-3.88,1.18-13.02,7.96
			c-10.83,8.03-20.03,18.72-17.36,26.38c1.24,3.58,1.55,5.15,0.79,5.15c-0.83,0-2.95-1.91-6.53-5.15
			c-4.76-4.32-5.58-9.14-4.34-14.74c1.24-5.6,0.47-16.06-0.93-21.96c-1.4-5.9-13.18-11.94-16.43-15.03c-3.26-3.1-2.64-5.75,0-9.43
			s3.1-8.25,5.27-13.56C130.83,436.11,131.49,435.21,132.31,435.21 M132.31,433.71c-1.95,0-2.93,1.98-3.83,4.18
			c-0.85,2.07-1.43,3.98-1.99,5.82c-0.87,2.86-1.62,5.34-3.12,7.43c-2.48,3.47-4.17,7.25,0.19,11.39c1.04,0.99,2.78,2.18,4.79,3.57
			c4.38,3.01,10.37,7.13,11.22,10.73c1.38,5.82,2.1,16,0.93,21.29c-1.49,6.71,0.04,11.85,4.8,16.17c4.74,4.3,6.17,5.54,7.54,5.54
			c0.62,0,1.17-0.28,1.52-0.77c0.7-0.98,0.5-2.35-0.9-6.37c-2.05-5.89,4.56-15.58,16.84-24.68c3.89-2.88,7.36-2.99,9.9-3.06
			c1.82-0.05,3.38-0.1,4.22-1.41c0.82-1.28,0.38-2.97-0.61-5.28c-2.46-5.79-1.47-8.75,1.37-12.51c1.67-2.22,3.11-4.53,2.38-6.48
			c-0.63-1.67-2.47-2.26-4.18-2.6c-2.26-0.46-13.8-3.02-19.29-8.24c-3.98-3.78-5.43-4.01-8.07-4.14c-0.86-0.04-1.84-0.09-3.21-0.37
			c-4.79-0.97-10.31-3.46-14.77-6.67c-0.79-0.57-1.46-1.1-2.04-1.57C134.57,434.53,133.54,433.71,132.31,433.71L132.31,433.71z"/>
	</g>
	<g>
		<path class="st6" d="M191.63,518.38c1.43,0,3.24,0.62,5.6,2.12c8.99,5.7,14.58,11.09,20.97,11.09c0.99,0,1.99-0.13,3.03-0.4
			c4.56-1.2,6.84-2.21,7.55-2.21c0.5,0,0.21,0.5-0.63,1.8c-2.02,3.13-4.87,4.26-4.87,4.26s-10.23,4.14-24.78,5.86
			c-3.59,0.42-7.14,0.59-10.5,0.59c-12.22,0-21.89-2.2-21.89-2.2s0.02,0,0.04,0c0.17,0,0.73-0.1-1.15-1.72
			c-1.94-1.66,3.26-2.93,7.17-2.93c0.44,0,0.87,0.02,1.27,0.05c1.67,0.14,3.13,0.43,4.47,0.43c2.3,0,4.21-0.85,6.13-4.75
			C186.37,525.6,186.78,518.38,191.63,518.38 M191.63,516.88c-4.55,0-6.03,4.54-7.33,8.54c-0.48,1.48-0.98,3.01-1.61,4.28
			c-1.77,3.61-3.27,3.91-4.78,3.91c-0.73,0-1.56-0.1-2.44-0.21c-0.6-0.08-1.23-0.15-1.9-0.21c-0.43-0.04-0.9-0.06-1.39-0.06
			c-0.08,0-7.87,0.03-8.95,2.98c-0.33,0.9-0.03,1.87,0.81,2.59c0.26,0.22,0.45,0.39,0.59,0.53c-0.02,0.71,0.46,1.35,1.17,1.51
			c0.4,0.09,9.97,2.24,22.22,2.24c3.7,0,7.3-0.2,10.67-0.6c14.58-1.72,24.74-5.78,25.17-5.96c0.12-0.05,3.31-1.33,5.56-4.83
			c0.87-1.36,1.45-2.25,0.91-3.25c-0.3-0.54-0.87-0.87-1.54-0.87c-0.57,0-1.24,0.22-2.58,0.66c-1.26,0.41-2.98,0.98-5.35,1.6
			c-0.9,0.24-1.76,0.35-2.65,0.35c-4.29,0-8.28-2.76-13.81-6.59c-1.89-1.31-4.03-2.79-6.37-4.27
			C195.53,517.65,193.44,516.88,191.63,516.88L191.63,516.88z"/>
	</g>
	<path class="st16" d="M204.85,647.93h-15.62c-3.58,0-6.51-2.93-6.51-6.51v-29.79c0-3.58,2.93-6.51,6.51-6.51h15.62
		c3.58,0,6.51,2.93,6.51,6.51v29.79C211.36,645.01,208.43,647.93,204.85,647.93z"/>
	<path class="st16" d="M239.8,650.57h-86c-1.38,0-2.51-1.13-2.51-2.51v-7.14c0-1.38,1.13-2.51,2.51-2.51h86
		c1.38,0,2.51,1.13,2.51,2.51v7.14C242.31,649.44,241.18,650.57,239.8,650.57z"/>
	<line class="st5" x1="197.04" y1="561.38" x2="197.18" y2="605.13"/>
</g>
</svg>
